<svg width="139" height="50" viewBox="0 0 139 50" fill="none" xmlns="http://www.w3.org/2000/svg">
<path d="M19.1117 43.7767V46.7017C18.745 46.9717 18.3533 47.17 17.9367 47.2967C17.5233 47.42 17.08 47.4817 16.6067 47.4817C16.0167 47.4817 15.4817 47.39 15.0017 47.2067C14.525 47.0233 14.1167 46.7683 13.7767 46.4417C13.44 46.115 13.18 45.725 12.9967 45.2717C12.8133 44.8183 12.7217 44.3233 12.7217 43.7867C12.7217 43.2433 12.81 42.745 12.9867 42.2917C13.1633 41.8383 13.4133 41.4483 13.7367 41.1217C14.0633 40.795 14.4583 40.5417 14.9217 40.3617C15.385 40.1817 15.905 40.0917 16.4817 40.0917C16.775 40.0917 17.0483 40.115 17.3017 40.1617C17.5583 40.2083 17.795 40.2733 18.0117 40.3567C18.2317 40.4367 18.4317 40.535 18.6117 40.6517C18.7917 40.7683 18.9567 40.8967 19.1067 41.0367L18.7217 41.6467C18.6617 41.7433 18.5833 41.8033 18.4867 41.8267C18.39 41.8467 18.285 41.8217 18.1717 41.7517C18.0617 41.6883 17.9517 41.625 17.8417 41.5617C17.7317 41.4983 17.6083 41.4433 17.4717 41.3967C17.3383 41.35 17.1867 41.3117 17.0167 41.2817C16.85 41.2517 16.6567 41.2367 16.4367 41.2367C16.08 41.2367 15.7567 41.2967 15.4667 41.4167C15.18 41.5367 14.935 41.7083 14.7317 41.9317C14.5283 42.155 14.3717 42.4233 14.2617 42.7367C14.1517 43.05 14.0967 43.4 14.0967 43.7867C14.0967 44.2 14.155 44.57 14.2717 44.8967C14.3917 45.22 14.5583 45.495 14.7717 45.7217C14.9883 45.945 15.2483 46.1167 15.5517 46.2367C15.855 46.3533 16.1933 46.4117 16.5667 46.4117C16.8333 46.4117 17.0717 46.3833 17.2817 46.3267C17.4917 46.27 17.6967 46.1933 17.8967 46.0967V44.7867H16.9867C16.9 44.7867 16.8317 44.7633 16.7817 44.7167C16.735 44.6667 16.7117 44.6067 16.7117 44.5367V43.7767H19.1117ZM22.903 45.2117C22.5463 45.2283 22.2463 45.26 22.003 45.3067C21.7597 45.35 21.5647 45.4067 21.418 45.4767C21.2713 45.5467 21.1663 45.6283 21.103 45.7217C21.0397 45.815 21.008 45.9167 21.008 46.0267C21.008 46.2433 21.0713 46.3983 21.198 46.4917C21.328 46.585 21.4963 46.6317 21.703 46.6317C21.9563 46.6317 22.1747 46.5867 22.358 46.4967C22.5447 46.4033 22.7263 46.2633 22.903 46.0767V45.2117ZM20.073 42.9867C20.663 42.4467 21.373 42.1767 22.203 42.1767C22.503 42.1767 22.7713 42.2267 23.008 42.3267C23.2447 42.4233 23.4447 42.56 23.608 42.7367C23.7713 42.91 23.8947 43.1183 23.978 43.3617C24.0647 43.605 24.108 43.8717 24.108 44.1617V47.4017H23.548C23.4313 47.4017 23.3413 47.385 23.278 47.3517C23.2147 47.315 23.1647 47.2433 23.128 47.1367L23.018 46.7667C22.888 46.8833 22.7613 46.9867 22.638 47.0767C22.5147 47.1633 22.3863 47.2367 22.253 47.2967C22.1197 47.3567 21.9763 47.4017 21.823 47.4317C21.673 47.465 21.5063 47.4817 21.323 47.4817C21.1063 47.4817 20.9063 47.4533 20.723 47.3967C20.5397 47.3367 20.3813 47.2483 20.248 47.1317C20.1147 47.015 20.0113 46.87 19.938 46.6967C19.8647 46.5233 19.828 46.3217 19.828 46.0917C19.828 45.9617 19.8497 45.8333 19.893 45.7067C19.9363 45.5767 20.0063 45.4533 20.103 45.3367C20.203 45.22 20.3313 45.11 20.488 45.0067C20.6447 44.9033 20.8363 44.8133 21.063 44.7367C21.293 44.66 21.5597 44.5983 21.863 44.5517C22.1663 44.5017 22.513 44.4717 22.903 44.4617V44.1617C22.903 43.8183 22.8297 43.565 22.683 43.4017C22.5363 43.235 22.3247 43.1517 22.048 43.1517C21.848 43.1517 21.6813 43.175 21.548 43.2217C21.418 43.2683 21.303 43.3217 21.203 43.3817C21.103 43.4383 21.0113 43.49 20.928 43.5367C20.848 43.5833 20.758 43.6067 20.658 43.6067C20.5713 43.6067 20.498 43.585 20.438 43.5417C20.378 43.495 20.3297 43.4417 20.293 43.3817L20.073 42.9867ZM25.2711 47.4017V42.2717H26.0261C26.1861 42.2717 26.2911 42.3467 26.3411 42.4967L26.4211 42.8767C26.5111 42.7767 26.6045 42.685 26.7011 42.6017C26.8011 42.5183 26.9061 42.4467 27.0161 42.3867C27.1295 42.3267 27.2495 42.28 27.3761 42.2467C27.5061 42.21 27.6478 42.1917 27.8011 42.1917C28.1245 42.1917 28.3895 42.28 28.5961 42.4567C28.8061 42.63 28.9628 42.8617 29.0661 43.1517C29.1461 42.9817 29.2461 42.8367 29.3661 42.7167C29.4861 42.5933 29.6178 42.4933 29.7611 42.4167C29.9045 42.34 30.0561 42.2833 30.2161 42.2467C30.3795 42.21 30.5428 42.1917 30.7061 42.1917C30.9895 42.1917 31.2411 42.235 31.4611 42.3217C31.6811 42.4083 31.8661 42.535 32.0161 42.7017C32.1661 42.8683 32.2795 43.0717 32.3561 43.3117C32.4361 43.5517 32.4761 43.8267 32.4761 44.1367V47.4017H31.2411V44.1367C31.2411 43.81 31.1695 43.565 31.0261 43.4017C30.8828 43.235 30.6728 43.1517 30.3961 43.1517C30.2695 43.1517 30.1511 43.1733 30.0411 43.2167C29.9345 43.26 29.8395 43.3233 29.7561 43.4067C29.6761 43.4867 29.6128 43.5883 29.5661 43.7117C29.5195 43.835 29.4961 43.9767 29.4961 44.1367V47.4017H28.2561V44.1367C28.2561 43.7933 28.1861 43.5433 28.0461 43.3867C27.9095 43.23 27.7078 43.1517 27.4411 43.1517C27.2611 43.1517 27.0928 43.1967 26.9361 43.2867C26.7828 43.3733 26.6395 43.4933 26.5061 43.6467V47.4017H25.2711ZM36.955 44.2467C36.955 44.0867 36.9317 43.9367 36.885 43.7967C36.8417 43.6533 36.775 43.5283 36.685 43.4217C36.595 43.315 36.48 43.2317 36.34 43.1717C36.2034 43.1083 36.0434 43.0767 35.86 43.0767C35.5034 43.0767 35.2217 43.1783 35.015 43.3817C34.8117 43.585 34.6817 43.8733 34.625 44.2467H36.955ZM34.6 44.9917C34.62 45.255 34.6667 45.4833 34.74 45.6767C34.8134 45.8667 34.91 46.025 35.03 46.1517C35.15 46.275 35.2917 46.3683 35.455 46.4317C35.6217 46.4917 35.805 46.5217 36.005 46.5217C36.205 46.5217 36.3767 46.4983 36.52 46.4517C36.6667 46.405 36.7934 46.3533 36.9 46.2967C37.01 46.24 37.105 46.1883 37.185 46.1417C37.2684 46.095 37.3484 46.0717 37.425 46.0717C37.5284 46.0717 37.605 46.11 37.655 46.1867L38.01 46.6367C37.8734 46.7967 37.72 46.9317 37.55 47.0417C37.38 47.1483 37.2017 47.235 37.015 47.3017C36.8317 47.365 36.6434 47.41 36.45 47.4367C36.26 47.4633 36.075 47.4767 35.895 47.4767C35.5384 47.4767 35.2067 47.4183 34.9 47.3017C34.5934 47.1817 34.3267 47.0067 34.1 46.7767C33.8734 46.5433 33.695 46.2567 33.565 45.9167C33.435 45.5733 33.37 45.1767 33.37 44.7267C33.37 44.3767 33.4267 44.0483 33.54 43.7417C33.6534 43.4317 33.815 43.1633 34.025 42.9367C34.2384 42.7067 34.4967 42.525 34.8 42.3917C35.1067 42.2583 35.4517 42.1917 35.835 42.1917C36.1584 42.1917 36.4567 42.2433 36.73 42.3467C37.0034 42.45 37.2384 42.6017 37.435 42.8017C37.6317 42.9983 37.785 43.2417 37.895 43.5317C38.0084 43.8183 38.065 44.1467 38.065 44.5167C38.065 44.7033 38.045 44.83 38.005 44.8967C37.965 44.96 37.8884 44.9917 37.775 44.9917H34.6ZM48.0385 43.7867C48.0385 44.3167 47.9501 44.8033 47.7735 45.2467C47.5968 45.69 47.3485 46.0717 47.0285 46.3917C46.7085 46.7117 46.3235 46.96 45.8735 47.1367C45.4235 47.3133 44.9235 47.4017 44.3735 47.4017H41.6185V40.1717H44.3735C44.9235 40.1717 45.4235 40.2617 45.8735 40.4417C46.3235 40.6183 46.7085 40.8667 47.0285 41.1867C47.3485 41.5033 47.5968 41.8833 47.7735 42.3267C47.9501 42.77 48.0385 43.2567 48.0385 43.7867ZM46.6585 43.7867C46.6585 43.39 46.6051 43.035 46.4985 42.7217C46.3951 42.405 46.2435 42.1383 46.0435 41.9217C45.8468 41.7017 45.6068 41.5333 45.3235 41.4167C45.0435 41.3 44.7268 41.2417 44.3735 41.2417H42.9685V46.3317H44.3735C44.7268 46.3317 45.0435 46.2733 45.3235 46.1567C45.6068 46.04 45.8468 45.8733 46.0435 45.6567C46.2435 45.4367 46.3951 45.17 46.4985 44.8567C46.6051 44.54 46.6585 44.1833 46.6585 43.7867ZM52.2675 44.2467C52.2675 44.0867 52.2442 43.9367 52.1975 43.7967C52.1542 43.6533 52.0875 43.5283 51.9975 43.4217C51.9075 43.315 51.7925 43.2317 51.6525 43.1717C51.5159 43.1083 51.3559 43.0767 51.1725 43.0767C50.8159 43.0767 50.5342 43.1783 50.3275 43.3817C50.1242 43.585 49.9942 43.8733 49.9375 44.2467H52.2675ZM49.9125 44.9917C49.9325 45.255 49.9792 45.4833 50.0525 45.6767C50.1259 45.8667 50.2225 46.025 50.3425 46.1517C50.4625 46.275 50.6042 46.3683 50.7675 46.4317C50.9342 46.4917 51.1175 46.5217 51.3175 46.5217C51.5175 46.5217 51.6892 46.4983 51.8325 46.4517C51.9792 46.405 52.1059 46.3533 52.2125 46.2967C52.3225 46.24 52.4175 46.1883 52.4975 46.1417C52.5809 46.095 52.6609 46.0717 52.7375 46.0717C52.8409 46.0717 52.9175 46.11 52.9675 46.1867L53.3225 46.6367C53.1859 46.7967 53.0325 46.9317 52.8625 47.0417C52.6925 47.1483 52.5142 47.235 52.3275 47.3017C52.1442 47.365 51.9559 47.41 51.7625 47.4367C51.5725 47.4633 51.3875 47.4767 51.2075 47.4767C50.8509 47.4767 50.5192 47.4183 50.2125 47.3017C49.9059 47.1817 49.6392 47.0067 49.4125 46.7767C49.1859 46.5433 49.0075 46.2567 48.8775 45.9167C48.7475 45.5733 48.6825 45.1767 48.6825 44.7267C48.6825 44.3767 48.7392 44.0483 48.8525 43.7417C48.9659 43.4317 49.1275 43.1633 49.3375 42.9367C49.5509 42.7067 49.8092 42.525 50.1125 42.3917C50.4192 42.2583 50.7642 42.1917 51.1475 42.1917C51.4709 42.1917 51.7692 42.2433 52.0425 42.3467C52.3159 42.45 52.5509 42.6017 52.7475 42.8017C52.9442 42.9983 53.0975 43.2417 53.2075 43.5317C53.3209 43.8183 53.3775 44.1467 53.3775 44.5167C53.3775 44.7033 53.3575 44.83 53.3175 44.8967C53.2775 44.96 53.2009 44.9917 53.0875 44.9917H49.9125ZM58.8024 42.2717L56.7674 47.4017H55.6474L53.6124 42.2717H54.6324C54.7257 42.2717 54.8024 42.2933 54.8624 42.3367C54.9257 42.38 54.9674 42.435 54.9874 42.5017L55.9774 45.2417C56.0307 45.4017 56.0774 45.5583 56.1174 45.7117C56.1574 45.865 56.1924 46.0183 56.2224 46.1717C56.2557 46.0183 56.2924 45.865 56.3324 45.7117C56.3724 45.5583 56.4207 45.4017 56.4774 45.2417L57.4874 42.5017C57.5107 42.435 57.5524 42.38 57.6124 42.3367C57.6724 42.2933 57.744 42.2717 57.8274 42.2717H58.8024ZM62.6093 44.2467C62.6093 44.0867 62.586 43.9367 62.5393 43.7967C62.496 43.6533 62.4293 43.5283 62.3393 43.4217C62.2493 43.315 62.1343 43.2317 61.9943 43.1717C61.8577 43.1083 61.6977 43.0767 61.5143 43.0767C61.1577 43.0767 60.876 43.1783 60.6693 43.3817C60.466 43.585 60.336 43.8733 60.2793 44.2467H62.6093ZM60.2543 44.9917C60.2743 45.255 60.321 45.4833 60.3943 45.6767C60.4677 45.8667 60.5643 46.025 60.6843 46.1517C60.8043 46.275 60.946 46.3683 61.1093 46.4317C61.276 46.4917 61.4593 46.5217 61.6593 46.5217C61.8593 46.5217 62.031 46.4983 62.1743 46.4517C62.321 46.405 62.4477 46.3533 62.5543 46.2967C62.6643 46.24 62.7593 46.1883 62.8393 46.1417C62.9227 46.095 63.0027 46.0717 63.0793 46.0717C63.1827 46.0717 63.2593 46.11 63.3093 46.1867L63.6643 46.6367C63.5277 46.7967 63.3743 46.9317 63.2043 47.0417C63.0343 47.1483 62.856 47.235 62.6693 47.3017C62.486 47.365 62.2977 47.41 62.1043 47.4367C61.9143 47.4633 61.7293 47.4767 61.5493 47.4767C61.1927 47.4767 60.861 47.4183 60.5543 47.3017C60.2477 47.1817 59.981 47.0067 59.7543 46.7767C59.5277 46.5433 59.3493 46.2567 59.2193 45.9167C59.0893 45.5733 59.0243 45.1767 59.0243 44.7267C59.0243 44.3767 59.081 44.0483 59.1943 43.7417C59.3077 43.4317 59.4693 43.1633 59.6793 42.9367C59.8927 42.7067 60.151 42.525 60.4543 42.3917C60.761 42.2583 61.106 42.1917 61.4893 42.1917C61.8127 42.1917 62.111 42.2433 62.3843 42.3467C62.6577 42.45 62.8927 42.6017 63.0893 42.8017C63.286 42.9983 63.4393 43.2417 63.5493 43.5317C63.6627 43.8183 63.7193 44.1467 63.7193 44.5167C63.7193 44.7033 63.6993 44.83 63.6593 44.8967C63.6193 44.96 63.5427 44.9917 63.4293 44.9917H60.2543ZM65.8961 39.9717V47.4017H64.6611V39.9717H65.8961ZM69.3966 42.1917C69.7766 42.1917 70.1216 42.2533 70.4316 42.3767C70.7449 42.5 71.0116 42.675 71.2316 42.9017C71.4549 43.1283 71.6266 43.405 71.7466 43.7317C71.8666 44.0583 71.9266 44.4233 71.9266 44.8267C71.9266 45.2333 71.8666 45.6 71.7466 45.9267C71.6266 46.2533 71.4549 46.5317 71.2316 46.7617C71.0116 46.9917 70.7449 47.1683 70.4316 47.2917C70.1216 47.415 69.7766 47.4767 69.3966 47.4767C69.0133 47.4767 68.6649 47.415 68.3516 47.2917C68.0383 47.1683 67.7699 46.9917 67.5466 46.7617C67.3266 46.5317 67.1549 46.2533 67.0316 45.9267C66.9116 45.6 66.8516 45.2333 66.8516 44.8267C66.8516 44.4233 66.9116 44.0583 67.0316 43.7317C67.1549 43.405 67.3266 43.1283 67.5466 42.9017C67.7699 42.675 68.0383 42.5 68.3516 42.3767C68.6649 42.2533 69.0133 42.1917 69.3966 42.1917ZM69.3966 46.5267C69.8233 46.5267 70.1383 46.3833 70.3416 46.0967C70.5483 45.81 70.6516 45.39 70.6516 44.8367C70.6516 44.2833 70.5483 43.8617 70.3416 43.5717C70.1383 43.2817 69.8233 43.1367 69.3966 43.1367C68.9633 43.1367 68.6416 43.2833 68.4316 43.5767C68.2249 43.8667 68.1216 44.2867 68.1216 44.8367C68.1216 45.3867 68.2249 45.8067 68.4316 46.0967C68.6416 46.3833 68.9633 46.5267 69.3966 46.5267ZM74.1038 46.0717C74.2438 46.2417 74.3955 46.3617 74.5588 46.4317C74.7255 46.5017 74.9055 46.5367 75.0988 46.5367C75.2855 46.5367 75.4538 46.5017 75.6038 46.4317C75.7538 46.3617 75.8805 46.255 75.9838 46.1117C76.0905 45.9683 76.1721 45.7883 76.2288 45.5717C76.2855 45.3517 76.3138 45.0933 76.3138 44.7967C76.3138 44.4967 76.2888 44.2433 76.2388 44.0367C76.1921 43.8267 76.1238 43.6567 76.0338 43.5267C75.9438 43.3967 75.8338 43.3017 75.7038 43.2417C75.5771 43.1817 75.4321 43.1517 75.2688 43.1517C75.0121 43.1517 74.7938 43.2067 74.6138 43.3167C74.4338 43.4233 74.2638 43.575 74.1038 43.7717V46.0717ZM74.0388 42.9717C74.2488 42.735 74.4871 42.5433 74.7538 42.3967C75.0205 42.25 75.3338 42.1767 75.6938 42.1767C75.9738 42.1767 76.2288 42.235 76.4588 42.3517C76.6921 42.4683 76.8921 42.6383 77.0588 42.8617C77.2288 43.0817 77.3588 43.355 77.4488 43.6817C77.5421 44.005 77.5888 44.3767 77.5888 44.7967C77.5888 45.18 77.5371 45.535 77.4338 45.8617C77.3305 46.1883 77.1821 46.4717 76.9888 46.7117C76.7988 46.9517 76.5671 47.14 76.2938 47.2767C76.0238 47.41 75.7205 47.4767 75.3838 47.4767C75.0971 47.4767 74.8521 47.4333 74.6488 47.3467C74.4455 47.2567 74.2638 47.1333 74.1038 46.9767V49.0767H72.8688V42.2717H73.6238C73.7838 42.2717 73.8888 42.3467 73.9388 42.4967L74.0388 42.9717ZM81.8574 44.2467C81.8574 44.0867 81.834 43.9367 81.7874 43.7967C81.744 43.6533 81.6774 43.5283 81.5874 43.4217C81.4974 43.315 81.3824 43.2317 81.2424 43.1717C81.1057 43.1083 80.9457 43.0767 80.7624 43.0767C80.4057 43.0767 80.124 43.1783 79.9174 43.3817C79.714 43.585 79.584 43.8733 79.5274 44.2467H81.8574ZM79.5024 44.9917C79.5224 45.255 79.569 45.4833 79.6424 45.6767C79.7157 45.8667 79.8124 46.025 79.9324 46.1517C80.0524 46.275 80.194 46.3683 80.3574 46.4317C80.524 46.4917 80.7074 46.5217 80.9074 46.5217C81.1074 46.5217 81.279 46.4983 81.4224 46.4517C81.569 46.405 81.6957 46.3533 81.8024 46.2967C81.9124 46.24 82.0074 46.1883 82.0874 46.1417C82.1707 46.095 82.2507 46.0717 82.3274 46.0717C82.4307 46.0717 82.5074 46.11 82.5574 46.1867L82.9124 46.6367C82.7757 46.7967 82.6224 46.9317 82.4524 47.0417C82.2824 47.1483 82.104 47.235 81.9174 47.3017C81.734 47.365 81.5457 47.41 81.3524 47.4367C81.1624 47.4633 80.9774 47.4767 80.7974 47.4767C80.4407 47.4767 80.109 47.4183 79.8024 47.3017C79.4957 47.1817 79.229 47.0067 79.0024 46.7767C78.7757 46.5433 78.5974 46.2567 78.4674 45.9167C78.3374 45.5733 78.2724 45.1767 78.2724 44.7267C78.2724 44.3767 78.329 44.0483 78.4424 43.7417C78.5557 43.4317 78.7174 43.1633 78.9274 42.9367C79.1407 42.7067 79.399 42.525 79.7024 42.3917C80.009 42.2583 80.354 42.1917 80.7374 42.1917C81.0607 42.1917 81.359 42.2433 81.6324 42.3467C81.9057 42.45 82.1407 42.6017 82.3374 42.8017C82.534 42.9983 82.6874 43.2417 82.7974 43.5317C82.9107 43.8183 82.9674 44.1467 82.9674 44.5167C82.9674 44.7033 82.9474 44.83 82.9074 44.8967C82.8674 44.96 82.7907 44.9917 82.6774 44.9917H79.5024ZM85.0592 43.1617C85.2192 42.855 85.4092 42.615 85.6292 42.4417C85.8492 42.265 86.1092 42.1767 86.4092 42.1767C86.6458 42.1767 86.8358 42.2283 86.9792 42.3317L86.8992 43.2567C86.8825 43.3167 86.8575 43.36 86.8242 43.3867C86.7942 43.41 86.7525 43.4217 86.6992 43.4217C86.6492 43.4217 86.5742 43.4133 86.4742 43.3967C86.3775 43.38 86.2825 43.3717 86.1892 43.3717C86.0525 43.3717 85.9308 43.3917 85.8242 43.4317C85.7175 43.4717 85.6208 43.53 85.5342 43.6067C85.4508 43.68 85.3758 43.77 85.3092 43.8767C85.2458 43.9833 85.1858 44.105 85.1292 44.2417V47.4017H83.8942V42.2717H84.6192C84.7458 42.2717 84.8342 42.295 84.8842 42.3417C84.9342 42.385 84.9675 42.465 84.9842 42.5817L85.0592 43.1617ZM95.0014 45.6967C95.0748 45.6967 95.1398 45.725 95.1964 45.7817L95.7264 46.3567C95.4331 46.72 95.0714 46.9983 94.6414 47.1917C94.2148 47.385 93.7014 47.4817 93.1014 47.4817C92.5648 47.4817 92.0814 47.39 91.6514 47.2067C91.2248 47.0233 90.8598 46.7683 90.5564 46.4417C90.2531 46.115 90.0198 45.725 89.8564 45.2717C89.6964 44.8183 89.6164 44.3233 89.6164 43.7867C89.6164 43.2433 89.7031 42.7467 89.8764 42.2967C90.0498 41.8433 90.2931 41.4533 90.6064 41.1267C90.9231 40.8 91.2998 40.5467 91.7364 40.3667C92.1731 40.1833 92.6564 40.0917 93.1864 40.0917C93.7131 40.0917 94.1798 40.1783 94.5864 40.3517C94.9964 40.525 95.3448 40.7517 95.6314 41.0317L95.1814 41.6567C95.1548 41.6967 95.1198 41.7317 95.0764 41.7617C95.0364 41.7917 94.9798 41.8067 94.9064 41.8067C94.8564 41.8067 94.8048 41.7933 94.7514 41.7667C94.6981 41.7367 94.6398 41.7017 94.5764 41.6617C94.5131 41.6183 94.4398 41.5717 94.3564 41.5217C94.2731 41.4717 94.1764 41.4267 94.0664 41.3867C93.9564 41.3433 93.8281 41.3083 93.6814 41.2817C93.5381 41.2517 93.3714 41.2367 93.1814 41.2367C92.8581 41.2367 92.5614 41.295 92.2914 41.4117C92.0248 41.525 91.7948 41.6917 91.6014 41.9117C91.4081 42.1283 91.2581 42.395 91.1514 42.7117C91.0448 43.025 90.9914 43.3833 90.9914 43.7867C90.9914 44.1933 91.0481 44.555 91.1614 44.8717C91.2781 45.1883 91.4348 45.455 91.6314 45.6717C91.8281 45.8883 92.0598 46.055 92.3264 46.1717C92.5931 46.285 92.8798 46.3417 93.1864 46.3417C93.3698 46.3417 93.5348 46.3317 93.6814 46.3117C93.8314 46.2917 93.9681 46.26 94.0914 46.2167C94.2181 46.1733 94.3364 46.1183 94.4464 46.0517C94.5598 45.9817 94.6714 45.8967 94.7814 45.7967C94.8148 45.7667 94.8498 45.7433 94.8864 45.7267C94.9231 45.7067 94.9614 45.6967 95.0014 45.6967ZM98.6154 42.1917C98.9954 42.1917 99.3404 42.2533 99.6504 42.3767C99.9637 42.5 100.23 42.675 100.45 42.9017C100.674 43.1283 100.845 43.405 100.965 43.7317C101.085 44.0583 101.145 44.4233 101.145 44.8267C101.145 45.2333 101.085 45.6 100.965 45.9267C100.845 46.2533 100.674 46.5317 100.45 46.7617C100.23 46.9917 99.9637 47.1683 99.6504 47.2917C99.3404 47.415 98.9954 47.4767 98.6154 47.4767C98.232 47.4767 97.8837 47.415 97.5704 47.2917C97.257 47.1683 96.9887 46.9917 96.7654 46.7617C96.5454 46.5317 96.3737 46.2533 96.2504 45.9267C96.1304 45.6 96.0704 45.2333 96.0704 44.8267C96.0704 44.4233 96.1304 44.0583 96.2504 43.7317C96.3737 43.405 96.5454 43.1283 96.7654 42.9017C96.9887 42.675 97.257 42.5 97.5704 42.3767C97.8837 42.2533 98.232 42.1917 98.6154 42.1917ZM98.6154 46.5267C99.042 46.5267 99.357 46.3833 99.5604 46.0967C99.767 45.81 99.8704 45.39 99.8704 44.8367C99.8704 44.2833 99.767 43.8617 99.5604 43.5717C99.357 43.2817 99.042 43.1367 98.6154 43.1367C98.182 43.1367 97.8604 43.2833 97.6504 43.5767C97.4437 43.8667 97.3404 44.2867 97.3404 44.8367C97.3404 45.3867 97.4437 45.8067 97.6504 46.0967C97.8604 46.3833 98.182 46.5267 98.6154 46.5267ZM103.243 42.9017C103.346 42.7983 103.454 42.7033 103.568 42.6167C103.684 42.5267 103.806 42.4517 103.933 42.3917C104.063 42.3283 104.201 42.28 104.348 42.2467C104.494 42.21 104.654 42.1917 104.828 42.1917C105.108 42.1917 105.356 42.24 105.573 42.3367C105.789 42.43 105.969 42.5633 106.113 42.7367C106.259 42.9067 106.369 43.1117 106.443 43.3517C106.519 43.5883 106.558 43.85 106.558 44.1367V47.4017H105.323V44.1367C105.323 43.8233 105.251 43.5817 105.108 43.4117C104.964 43.2383 104.746 43.1517 104.453 43.1517C104.239 43.1517 104.039 43.2 103.853 43.2967C103.666 43.3933 103.489 43.525 103.323 43.6917V47.4017H102.088V42.2717H102.843C103.003 42.2717 103.108 42.3467 103.158 42.4967L103.243 42.9017ZM108.887 42.9017C108.99 42.7983 109.099 42.7033 109.212 42.6167C109.329 42.5267 109.45 42.4517 109.577 42.3917C109.707 42.3283 109.845 42.28 109.992 42.2467C110.139 42.21 110.299 42.1917 110.472 42.1917C110.752 42.1917 111 42.24 111.217 42.3367C111.434 42.43 111.614 42.5633 111.757 42.7367C111.904 42.9067 112.014 43.1117 112.087 43.3517C112.164 43.5883 112.202 43.85 112.202 44.1367V47.4017H110.967V44.1367C110.967 43.8233 110.895 43.5817 110.752 43.4117C110.609 43.2383 110.39 43.1517 110.097 43.1517C109.884 43.1517 109.684 43.2 109.497 43.2967C109.31 43.3933 109.134 43.525 108.967 43.6917V47.4017H107.732V42.2717H108.487C108.647 42.2717 108.752 42.3467 108.802 42.4967L108.887 42.9017ZM116.682 44.2467C116.682 44.0867 116.658 43.9367 116.612 43.7967C116.568 43.6533 116.502 43.5283 116.412 43.4217C116.322 43.315 116.207 43.2317 116.067 43.1717C115.93 43.1083 115.77 43.0767 115.587 43.0767C115.23 43.0767 114.948 43.1783 114.742 43.3817C114.538 43.585 114.408 43.8733 114.352 44.2467H116.682ZM114.327 44.9917C114.347 45.255 114.393 45.4833 114.467 45.6767C114.54 45.8667 114.637 46.025 114.757 46.1517C114.877 46.275 115.018 46.3683 115.182 46.4317C115.348 46.4917 115.532 46.5217 115.732 46.5217C115.932 46.5217 116.103 46.4983 116.247 46.4517C116.393 46.405 116.52 46.3533 116.627 46.2967C116.737 46.24 116.832 46.1883 116.912 46.1417C116.995 46.095 117.075 46.0717 117.152 46.0717C117.255 46.0717 117.332 46.11 117.382 46.1867L117.737 46.6367C117.6 46.7967 117.447 46.9317 117.277 47.0417C117.107 47.1483 116.928 47.235 116.742 47.3017C116.558 47.365 116.37 47.41 116.177 47.4367C115.987 47.4633 115.802 47.4767 115.622 47.4767C115.265 47.4767 114.933 47.4183 114.627 47.3017C114.32 47.1817 114.053 47.0067 113.827 46.7767C113.6 46.5433 113.422 46.2567 113.292 45.9167C113.162 45.5733 113.097 45.1767 113.097 44.7267C113.097 44.3767 113.153 44.0483 113.267 43.7417C113.38 43.4317 113.542 43.1633 113.752 42.9367C113.965 42.7067 114.223 42.525 114.527 42.3917C114.833 42.2583 115.178 42.1917 115.562 42.1917C115.885 42.1917 116.183 42.2433 116.457 42.3467C116.73 42.45 116.965 42.6017 117.162 42.8017C117.358 42.9983 117.512 43.2417 117.622 43.5317C117.735 43.8183 117.792 44.1467 117.792 44.5167C117.792 44.7033 117.772 44.83 117.732 44.8967C117.692 44.96 117.615 44.9917 117.502 44.9917H114.327ZM122.393 43.3567C122.357 43.4033 122.32 43.44 122.283 43.4667C122.25 43.4933 122.2 43.5067 122.133 43.5067C122.07 43.5067 122.008 43.4883 121.948 43.4517C121.888 43.4117 121.817 43.3683 121.733 43.3217C121.65 43.2717 121.55 43.2283 121.433 43.1917C121.32 43.1517 121.178 43.1317 121.008 43.1317C120.792 43.1317 120.602 43.1717 120.438 43.2517C120.275 43.3283 120.138 43.44 120.028 43.5867C119.922 43.7333 119.842 43.9117 119.788 44.1217C119.735 44.3283 119.708 44.5633 119.708 44.8267C119.708 45.1 119.737 45.3433 119.793 45.5567C119.853 45.77 119.938 45.95 120.048 46.0967C120.158 46.24 120.292 46.35 120.448 46.4267C120.605 46.5 120.782 46.5367 120.978 46.5367C121.175 46.5367 121.333 46.5133 121.453 46.4667C121.577 46.4167 121.68 46.3633 121.763 46.3067C121.847 46.2467 121.918 46.1933 121.978 46.1467C122.042 46.0967 122.112 46.0717 122.188 46.0717C122.288 46.0717 122.363 46.11 122.413 46.1867L122.768 46.6367C122.632 46.7967 122.483 46.9317 122.323 47.0417C122.163 47.1483 121.997 47.235 121.823 47.3017C121.653 47.365 121.477 47.41 121.293 47.4367C121.113 47.4633 120.933 47.4767 120.753 47.4767C120.437 47.4767 120.138 47.4183 119.858 47.3017C119.578 47.1817 119.333 47.0083 119.123 46.7817C118.913 46.555 118.747 46.2783 118.623 45.9517C118.503 45.6217 118.443 45.2467 118.443 44.8267C118.443 44.45 118.497 44.1017 118.603 43.7817C118.713 43.4583 118.873 43.18 119.083 42.9467C119.293 42.71 119.553 42.525 119.863 42.3917C120.173 42.2583 120.53 42.1917 120.933 42.1917C121.317 42.1917 121.652 42.2533 121.938 42.3767C122.228 42.5 122.488 42.6767 122.718 42.9067L122.393 43.3567ZM125.253 47.4817C124.806 47.4817 124.463 47.3567 124.223 47.1067C123.986 46.8533 123.868 46.505 123.868 46.0617V43.1967H123.343C123.276 43.1967 123.219 43.175 123.173 43.1317C123.126 43.0883 123.103 43.0233 123.103 42.9367V42.4467L123.928 42.3117L124.188 40.9117C124.204 40.845 124.236 40.7933 124.283 40.7567C124.329 40.72 124.389 40.7017 124.463 40.7017H125.103V42.3167H126.473V43.1967H125.103V45.9767C125.103 46.1367 125.141 46.2617 125.218 46.3517C125.298 46.4417 125.406 46.4867 125.543 46.4867C125.619 46.4867 125.683 46.4783 125.733 46.4617C125.786 46.4417 125.831 46.4217 125.868 46.4017C125.908 46.3817 125.943 46.3633 125.973 46.3467C126.003 46.3267 126.033 46.3167 126.063 46.3167C126.099 46.3167 126.129 46.3267 126.153 46.3467C126.176 46.3633 126.201 46.39 126.228 46.4267L126.598 47.0267C126.418 47.1767 126.211 47.29 125.978 47.3667C125.744 47.4433 125.503 47.4817 125.253 47.4817Z" fill="white"/>
<path d="M88.8866 5.72339C82.5209 -4.87917 72.9313 2.49716 72.9313 2.49716C72.3094 2.97367 71.1626 3.36545 70.3834 3.36727L67.8148 3.36909C67.0356 3.37 65.8888 2.97823 65.2678 2.50172C65.2678 2.50172 55.6774 -4.87644 49.3107 5.72613C42.9459 16.3251 45.5109 27.8679 45.5109 27.8679C45.9602 30.6941 47.4414 32.5801 50.2364 32.3432C53.0234 32.1073 59.0728 24.7318 59.0728 24.7318C59.5725 24.1241 60.6195 23.6276 61.397 23.6276L76.7959 23.6248C77.5742 23.6248 78.6204 24.1214 79.1192 24.7291C79.1192 24.7291 85.1694 32.1045 87.9609 32.3405C90.7524 32.5774 92.2371 30.6896 92.6838 27.8652C92.6829 27.8652 95.2524 16.3241 88.8866 5.72339ZM63.3113 14.3534H60.0093V17.5796C60.0093 17.5796 59.3101 18.1208 58.228 18.1072C57.1477 18.0908 56.6588 17.5168 56.6588 17.5168V14.3543H53.5402C53.5402 14.3543 53.151 13.9498 53.0468 12.8847C52.9443 11.8196 53.4773 10.9586 53.4773 10.9586H56.7801V7.61121C56.7801 7.61121 57.4596 7.24221 58.4365 7.27046C59.4143 7.30143 60.1306 7.67408 60.1306 7.67408L60.1172 10.9577H63.2358C63.2358 10.9577 63.7804 11.6666 63.8253 12.523C63.8703 13.3804 63.3113 14.3534 63.3113 14.3534ZM78.4568 18.0306C77.0107 18.0306 75.8451 16.8453 75.8451 15.3811C75.8451 13.9143 77.0107 12.7316 78.4568 12.7316C79.8966 12.7316 81.0712 13.9143 81.0712 15.3811C81.0712 16.8462 79.8966 18.0306 78.4568 18.0306ZM78.4568 10.7409C77.0107 10.7409 75.8451 9.55643 75.8451 8.09228C75.8451 6.62539 77.0107 5.44277 78.4568 5.44277C79.8966 5.44277 81.0712 6.62539 81.0712 8.09228C81.0712 9.55734 79.8966 10.7409 78.4568 10.7409ZM84.9654 14.6541C83.5194 14.6541 82.3537 13.4696 82.3537 12.0046C82.3537 10.5386 83.5194 9.35507 84.9654 9.35507C86.4052 9.35507 87.5799 10.5386 87.5799 12.0046C87.5799 13.4696 86.4052 14.6541 84.9654 14.6541Z" fill="white"/>
</svg>
